<mxfile host="app.diagrams.net" modified="2024-03-14T22:51:03.497Z" agent="Mozilla/5.0 (Windows NT 10.0; Win64; x64) AppleWebKit/537.36 (KHTML, like Gecko) Chrome/122.0.0.0 Safari/537.36" etag="GaKfVMqlAbDjqLUKuKXQ" version="24.0.6" type="device">
  <diagram name="Sayfa -1" id="dFmCLm8lifRzaBMQbPRA">
    <mxGraphModel dx="1290" dy="522" grid="1" gridSize="10" guides="1" tooltips="1" connect="1" arrows="1" fold="1" page="1" pageScale="1" pageWidth="827" pageHeight="1169" math="0" shadow="0">
      <root>
        <mxCell id="0" />
        <mxCell id="1" parent="0" />
        <mxCell id="2S6TP5mC4VeS2yAv5Is--1" value="Kayıt Oluşturma" style="ellipse;whiteSpace=wrap;html=1;" parent="1" vertex="1">
          <mxGeometry x="190" y="30" width="120" height="50" as="geometry" />
        </mxCell>
        <mxCell id="41TGBnGnlZ0I4yRVet3i-2" value="Kullanıcı" style="shape=umlActor;verticalLabelPosition=bottom;verticalAlign=top;html=1;outlineConnect=0;" parent="1" vertex="1">
          <mxGeometry x="40" y="150" width="70" height="130" as="geometry" />
        </mxCell>
        <mxCell id="41TGBnGnlZ0I4yRVet3i-4" value="Oturum Açma" style="ellipse;whiteSpace=wrap;html=1;" parent="1" vertex="1">
          <mxGeometry x="190" y="110" width="120" height="50" as="geometry" />
        </mxCell>
        <mxCell id="41TGBnGnlZ0I4yRVet3i-5" value="E-mail" style="ellipse;whiteSpace=wrap;html=1;" parent="1" vertex="1">
          <mxGeometry x="383" y="90" width="70" height="40" as="geometry" />
        </mxCell>
        <mxCell id="41TGBnGnlZ0I4yRVet3i-15" value="Filtreleme" style="ellipse;whiteSpace=wrap;html=1;" parent="1" vertex="1">
          <mxGeometry x="442.43" y="180" width="110" height="40" as="geometry" />
        </mxCell>
        <mxCell id="41TGBnGnlZ0I4yRVet3i-16" value="Ayakkabı Arama" style="ellipse;whiteSpace=wrap;html=1;" parent="1" vertex="1">
          <mxGeometry x="190" y="190" width="120" height="50" as="geometry" />
        </mxCell>
        <mxCell id="41TGBnGnlZ0I4yRVet3i-17" value="Ödeme İşlemleri" style="ellipse;whiteSpace=wrap;html=1;" parent="1" vertex="1">
          <mxGeometry x="190" y="275" width="120" height="50" as="geometry" />
        </mxCell>
        <mxCell id="41TGBnGnlZ0I4yRVet3i-18" value="Dış Sistemler" style="shape=note;whiteSpace=wrap;html=1;backgroundOutline=1;darkOpacity=0.05;" parent="1" vertex="1">
          <mxGeometry x="690" y="115" width="120" height="110" as="geometry" />
        </mxCell>
        <mxCell id="41TGBnGnlZ0I4yRVet3i-25" value="" style="triangle;whiteSpace=wrap;html=1;direction=north;" parent="1" vertex="1">
          <mxGeometry x="230" y="325" width="40" height="20" as="geometry" />
        </mxCell>
        <mxCell id="41TGBnGnlZ0I4yRVet3i-28" value="" style="endArrow=none;html=1;rounded=0;entryX=0;entryY=0.5;entryDx=0;entryDy=0;" parent="1" target="41TGBnGnlZ0I4yRVet3i-25" edge="1">
          <mxGeometry width="50" height="50" relative="1" as="geometry">
            <mxPoint x="250" y="365" as="sourcePoint" />
            <mxPoint x="210" y="385" as="targetPoint" />
            <Array as="points" />
          </mxGeometry>
        </mxCell>
        <mxCell id="41TGBnGnlZ0I4yRVet3i-29" value="" style="endArrow=none;html=1;rounded=0;entryX=0.75;entryY=1;entryDx=0;entryDy=0;" parent="1" source="41TGBnGnlZ0I4yRVet3i-31" target="41TGBnGnlZ0I4yRVet3i-37" edge="1">
          <mxGeometry width="50" height="50" relative="1" as="geometry">
            <mxPoint x="310" y="400" as="sourcePoint" />
            <mxPoint x="310" y="380" as="targetPoint" />
          </mxGeometry>
        </mxCell>
        <mxCell id="41TGBnGnlZ0I4yRVet3i-30" value="" style="endArrow=none;html=1;rounded=0;" parent="1" edge="1">
          <mxGeometry width="50" height="50" relative="1" as="geometry">
            <mxPoint x="190" y="385" as="sourcePoint" />
            <mxPoint x="190" y="365" as="targetPoint" />
          </mxGeometry>
        </mxCell>
        <mxCell id="41TGBnGnlZ0I4yRVet3i-32" value="Kapıda Ödeme" style="ellipse;whiteSpace=wrap;html=1;" parent="1" vertex="1">
          <mxGeometry x="150" y="380" width="80" height="50" as="geometry" />
        </mxCell>
        <mxCell id="41TGBnGnlZ0I4yRVet3i-33" value="" style="triangle;whiteSpace=wrap;html=1;direction=west;" parent="1" vertex="1">
          <mxGeometry x="310" y="122.5" width="20" height="25" as="geometry" />
        </mxCell>
        <mxCell id="41TGBnGnlZ0I4yRVet3i-35" value="" style="endArrow=none;html=1;rounded=0;entryX=0;entryY=0.5;entryDx=0;entryDy=0;" parent="1" target="41TGBnGnlZ0I4yRVet3i-33" edge="1">
          <mxGeometry width="50" height="50" relative="1" as="geometry">
            <mxPoint x="360" y="135" as="sourcePoint" />
            <mxPoint x="470" y="260" as="targetPoint" />
            <Array as="points" />
          </mxGeometry>
        </mxCell>
        <mxCell id="41TGBnGnlZ0I4yRVet3i-36" value="&amp;lt;&amp;lt;extends&amp;gt;&amp;gt;" style="text;strokeColor=none;align=center;fillColor=none;html=1;verticalAlign=middle;whiteSpace=wrap;rounded=0;rotation=0;" parent="1" vertex="1">
          <mxGeometry x="326" y="80" width="57" height="30" as="geometry" />
        </mxCell>
        <mxCell id="41TGBnGnlZ0I4yRVet3i-37" value="&amp;lt;&amp;lt;extends&amp;gt;&amp;gt;" style="text;strokeColor=none;align=center;fillColor=none;html=1;verticalAlign=middle;whiteSpace=wrap;rounded=0;" parent="1" vertex="1">
          <mxGeometry x="280" y="335" width="40" height="30" as="geometry" />
        </mxCell>
        <mxCell id="41TGBnGnlZ0I4yRVet3i-40" value="" style="endArrow=none;html=1;rounded=0;" parent="1" edge="1">
          <mxGeometry width="50" height="50" relative="1" as="geometry">
            <mxPoint x="310" y="365" as="sourcePoint" />
            <mxPoint x="190" y="365" as="targetPoint" />
          </mxGeometry>
        </mxCell>
        <mxCell id="41TGBnGnlZ0I4yRVet3i-42" value="&amp;lt;&amp;lt;extends&amp;gt;&amp;gt;" style="text;strokeColor=none;align=center;fillColor=none;html=1;verticalAlign=middle;whiteSpace=wrap;rounded=0;" parent="1" vertex="1">
          <mxGeometry x="175" y="335" width="40" height="30" as="geometry" />
        </mxCell>
        <mxCell id="41TGBnGnlZ0I4yRVet3i-47" value="Renk" style="ellipse;whiteSpace=wrap;html=1;" parent="1" vertex="1">
          <mxGeometry x="422.43" y="305" width="70" height="45" as="geometry" />
        </mxCell>
        <mxCell id="41TGBnGnlZ0I4yRVet3i-49" value="Marka" style="ellipse;whiteSpace=wrap;html=1;" parent="1" vertex="1">
          <mxGeometry x="330" y="300" width="70" height="47.5" as="geometry" />
        </mxCell>
        <mxCell id="41TGBnGnlZ0I4yRVet3i-51" value="" style="triangle;whiteSpace=wrap;html=1;direction=north;" parent="1" vertex="1">
          <mxGeometry x="485" y="220" width="30" height="20" as="geometry" />
        </mxCell>
        <mxCell id="41TGBnGnlZ0I4yRVet3i-55" value="" style="endArrow=none;html=1;rounded=0;entryX=0.5;entryY=0;entryDx=0;entryDy=0;entryPerimeter=0;" parent="1" target="41TGBnGnlZ0I4yRVet3i-47" edge="1">
          <mxGeometry width="50" height="50" relative="1" as="geometry">
            <mxPoint x="457.43" y="265" as="sourcePoint" />
            <mxPoint x="457.43" y="300" as="targetPoint" />
            <Array as="points">
              <mxPoint x="457.43" y="270" />
            </Array>
          </mxGeometry>
        </mxCell>
        <mxCell id="41TGBnGnlZ0I4yRVet3i-57" value="Ayakkabı numarası" style="ellipse;whiteSpace=wrap;html=1;" parent="1" vertex="1">
          <mxGeometry x="502.43" y="305" width="70" height="45" as="geometry" />
        </mxCell>
        <mxCell id="41TGBnGnlZ0I4yRVet3i-72" value="" style="endArrow=none;html=1;rounded=0;" parent="1" edge="1">
          <mxGeometry width="50" height="50" relative="1" as="geometry">
            <mxPoint x="372.43" y="265" as="sourcePoint" />
            <mxPoint x="622.43" y="265" as="targetPoint" />
          </mxGeometry>
        </mxCell>
        <mxCell id="41TGBnGnlZ0I4yRVet3i-75" value="" style="endArrow=none;html=1;rounded=0;" parent="1" edge="1">
          <mxGeometry width="50" height="50" relative="1" as="geometry">
            <mxPoint x="372.43" y="305" as="sourcePoint" />
            <mxPoint x="372.43" y="265" as="targetPoint" />
          </mxGeometry>
        </mxCell>
        <mxCell id="41TGBnGnlZ0I4yRVet3i-77" value="" style="endArrow=none;html=1;rounded=0;" parent="1" edge="1">
          <mxGeometry width="50" height="50" relative="1" as="geometry">
            <mxPoint x="542.43" y="305" as="sourcePoint" />
            <mxPoint x="542.43" y="265" as="targetPoint" />
          </mxGeometry>
        </mxCell>
        <mxCell id="41TGBnGnlZ0I4yRVet3i-83" value="" style="endArrow=none;html=1;rounded=0;" parent="1" edge="1">
          <mxGeometry width="50" height="50" relative="1" as="geometry">
            <mxPoint x="622.43" y="305" as="sourcePoint" />
            <mxPoint x="622.43" y="265" as="targetPoint" />
            <Array as="points">
              <mxPoint x="622.43" y="285" />
            </Array>
          </mxGeometry>
        </mxCell>
        <mxCell id="41TGBnGnlZ0I4yRVet3i-84" value="Stok Durumu" style="ellipse;whiteSpace=wrap;html=1;" parent="1" vertex="1">
          <mxGeometry x="582.43" y="305" width="70" height="45" as="geometry" />
        </mxCell>
        <mxCell id="41TGBnGnlZ0I4yRVet3i-87" value="" style="endArrow=none;html=1;rounded=0;entryX=0;entryY=0.5;entryDx=0;entryDy=0;" parent="1" edge="1">
          <mxGeometry width="50" height="50" relative="1" as="geometry">
            <mxPoint x="498.43" y="265" as="sourcePoint" />
            <mxPoint x="498.55999999999995" y="240" as="targetPoint" />
          </mxGeometry>
        </mxCell>
        <mxCell id="41TGBnGnlZ0I4yRVet3i-90" value="&amp;lt;&amp;lt;extends&amp;gt;&amp;gt;" style="text;strokeColor=none;align=center;fillColor=none;html=1;verticalAlign=middle;whiteSpace=wrap;rounded=0;" parent="1" vertex="1">
          <mxGeometry x="314.5" y="430" width="80" height="30" as="geometry" />
        </mxCell>
        <mxCell id="41TGBnGnlZ0I4yRVet3i-93" value="&amp;lt;&amp;lt;extends&amp;gt;&amp;gt;" style="text;strokeColor=none;align=center;fillColor=none;html=1;verticalAlign=middle;whiteSpace=wrap;rounded=0;" parent="1" vertex="1">
          <mxGeometry x="362.43" y="235" width="40" height="30" as="geometry" />
        </mxCell>
        <mxCell id="41TGBnGnlZ0I4yRVet3i-94" value="&amp;lt;&amp;lt;extends&amp;gt;&amp;gt;" style="text;strokeColor=none;align=center;fillColor=none;html=1;verticalAlign=middle;whiteSpace=wrap;rounded=0;" parent="1" vertex="1">
          <mxGeometry x="437.43" y="235" width="40" height="30" as="geometry" />
        </mxCell>
        <mxCell id="41TGBnGnlZ0I4yRVet3i-95" value="&amp;lt;&amp;lt;extends&amp;gt;&amp;gt;" style="text;strokeColor=none;align=center;fillColor=none;html=1;verticalAlign=middle;whiteSpace=wrap;rounded=0;" parent="1" vertex="1">
          <mxGeometry x="517.43" y="235" width="40" height="30" as="geometry" />
        </mxCell>
        <mxCell id="41TGBnGnlZ0I4yRVet3i-96" value="&amp;lt;&amp;lt;extends&amp;gt;&amp;gt;" style="text;strokeColor=none;align=center;fillColor=none;html=1;verticalAlign=middle;whiteSpace=wrap;rounded=0;" parent="1" vertex="1">
          <mxGeometry x="592.43" y="235" width="40" height="30" as="geometry" />
        </mxCell>
        <mxCell id="41TGBnGnlZ0I4yRVet3i-99" value="Ayakkabı Değişikliği" style="ellipse;whiteSpace=wrap;html=1;" parent="1" vertex="1">
          <mxGeometry x="180" y="440" width="120" height="50" as="geometry" />
        </mxCell>
        <mxCell id="41TGBnGnlZ0I4yRVet3i-101" value="Aktör" style="shape=note;whiteSpace=wrap;html=1;backgroundOutline=1;darkOpacity=0.05;" parent="1" vertex="1">
          <mxGeometry x="30" y="310" width="90" height="60" as="geometry" />
        </mxCell>
        <mxCell id="41TGBnGnlZ0I4yRVet3i-133" style="edgeStyle=orthogonalEdgeStyle;rounded=0;orthogonalLoop=1;jettySize=auto;html=1;exitX=1;exitY=0.5;exitDx=0;exitDy=0;" parent="1" source="41TGBnGnlZ0I4yRVet3i-103" target="41TGBnGnlZ0I4yRVet3i-18" edge="1">
          <mxGeometry relative="1" as="geometry" />
        </mxCell>
        <mxCell id="41TGBnGnlZ0I4yRVet3i-103" value="Ayakkabı Silme&amp;nbsp;" style="ellipse;whiteSpace=wrap;html=1;" parent="1" vertex="1">
          <mxGeometry x="382.43" y="545" width="110" height="40" as="geometry" />
        </mxCell>
        <mxCell id="41TGBnGnlZ0I4yRVet3i-104" value="" style="triangle;whiteSpace=wrap;html=1;direction=south;" parent="1" vertex="1">
          <mxGeometry x="423" y="500" width="30" height="20" as="geometry" />
        </mxCell>
        <mxCell id="41TGBnGnlZ0I4yRVet3i-105" value="" style="endArrow=none;html=1;rounded=0;entryX=0.5;entryY=1;entryDx=0;entryDy=0;" parent="1" source="41TGBnGnlZ0I4yRVet3i-104" target="41TGBnGnlZ0I4yRVet3i-110" edge="1">
          <mxGeometry width="50" height="50" relative="1" as="geometry">
            <mxPoint x="105" y="540" as="sourcePoint" />
            <mxPoint x="95" y="540.5" as="targetPoint" />
          </mxGeometry>
        </mxCell>
        <mxCell id="41TGBnGnlZ0I4yRVet3i-106" value="&amp;lt;&amp;lt;uses&amp;gt;&amp;gt;" style="text;strokeColor=none;align=center;fillColor=none;html=1;verticalAlign=middle;whiteSpace=wrap;rounded=0;" parent="1" vertex="1">
          <mxGeometry x="451.13" y="480" width="38.87" height="30" as="geometry" />
        </mxCell>
        <mxCell id="41TGBnGnlZ0I4yRVet3i-109" value="" style="triangle;whiteSpace=wrap;html=1;direction=west;" parent="1" vertex="1">
          <mxGeometry x="301.43" y="448.13" width="26" height="33.75" as="geometry" />
        </mxCell>
        <mxCell id="41TGBnGnlZ0I4yRVet3i-110" value="Sepete Git" style="ellipse;whiteSpace=wrap;html=1;" parent="1" vertex="1">
          <mxGeometry x="383" y="445" width="110" height="40" as="geometry" />
        </mxCell>
        <mxCell id="41TGBnGnlZ0I4yRVet3i-112" value="Ayakkabı Ekleme" style="ellipse;whiteSpace=wrap;html=1;" parent="1" vertex="1">
          <mxGeometry x="570" y="445" width="105" height="40" as="geometry" />
        </mxCell>
        <mxCell id="41TGBnGnlZ0I4yRVet3i-113" value="" style="triangle;whiteSpace=wrap;html=1;" parent="1" vertex="1">
          <mxGeometry x="312.43" y="605" width="20" height="33.75" as="geometry" />
        </mxCell>
        <mxCell id="41TGBnGnlZ0I4yRVet3i-114" value="" style="endArrow=none;html=1;rounded=0;entryX=1;entryY=0.5;entryDx=0;entryDy=0;" parent="1" target="70UcXTock5xrmthyNz8D-40" edge="1">
          <mxGeometry width="50" height="50" relative="1" as="geometry">
            <mxPoint x="287.43" y="623.25" as="sourcePoint" />
            <mxPoint x="260.43" y="623.75" as="targetPoint" />
            <Array as="points">
              <mxPoint x="312.43" y="624" />
              <mxPoint x="287.43" y="623.25" />
            </Array>
          </mxGeometry>
        </mxCell>
        <mxCell id="41TGBnGnlZ0I4yRVet3i-115" value="&amp;lt;&amp;lt;uses&amp;gt;&amp;gt;" style="text;strokeColor=none;align=center;fillColor=none;html=1;verticalAlign=middle;whiteSpace=wrap;rounded=0;" parent="1" vertex="1">
          <mxGeometry x="493" y="430" width="38.87" height="30" as="geometry" />
        </mxCell>
        <mxCell id="41TGBnGnlZ0I4yRVet3i-119" value="" style="endArrow=classic;html=1;rounded=0;entryX=0;entryY=0.5;entryDx=0;entryDy=0;exitX=0.5;exitY=0;exitDx=0;exitDy=0;exitPerimeter=0;" parent="1" source="41TGBnGnlZ0I4yRVet3i-2" target="2S6TP5mC4VeS2yAv5Is--1" edge="1">
          <mxGeometry width="50" height="50" relative="1" as="geometry">
            <mxPoint x="100" y="110" as="sourcePoint" />
            <mxPoint x="150" y="60" as="targetPoint" />
            <Array as="points" />
          </mxGeometry>
        </mxCell>
        <mxCell id="41TGBnGnlZ0I4yRVet3i-120" value="" style="endArrow=classic;html=1;rounded=0;entryX=0;entryY=0.5;entryDx=0;entryDy=0;exitX=0.75;exitY=0.1;exitDx=0;exitDy=0;exitPerimeter=0;" parent="1" source="41TGBnGnlZ0I4yRVet3i-2" target="41TGBnGnlZ0I4yRVet3i-4" edge="1">
          <mxGeometry width="50" height="50" relative="1" as="geometry">
            <mxPoint x="130" y="130" as="sourcePoint" />
            <mxPoint x="180" y="80" as="targetPoint" />
            <Array as="points" />
          </mxGeometry>
        </mxCell>
        <mxCell id="41TGBnGnlZ0I4yRVet3i-121" value="" style="endArrow=classic;html=1;rounded=0;entryX=0;entryY=0.5;entryDx=0;entryDy=0;exitX=1;exitY=0.3333333333333333;exitDx=0;exitDy=0;exitPerimeter=0;" parent="1" source="41TGBnGnlZ0I4yRVet3i-2" target="41TGBnGnlZ0I4yRVet3i-16" edge="1">
          <mxGeometry width="50" height="50" relative="1" as="geometry">
            <mxPoint x="120" y="200" as="sourcePoint" />
            <mxPoint x="170" y="150" as="targetPoint" />
            <Array as="points" />
          </mxGeometry>
        </mxCell>
        <mxCell id="41TGBnGnlZ0I4yRVet3i-122" value="" style="endArrow=classic;html=1;rounded=0;exitX=1;exitY=0.3333333333333333;exitDx=0;exitDy=0;exitPerimeter=0;" parent="1" source="41TGBnGnlZ0I4yRVet3i-2" target="41TGBnGnlZ0I4yRVet3i-17" edge="1">
          <mxGeometry width="50" height="50" relative="1" as="geometry">
            <mxPoint x="100" y="220" as="sourcePoint" />
            <mxPoint x="150" y="170" as="targetPoint" />
            <Array as="points" />
          </mxGeometry>
        </mxCell>
        <mxCell id="41TGBnGnlZ0I4yRVet3i-123" value="" style="endArrow=classic;html=1;rounded=0;entryX=0.01;entryY=0.296;entryDx=0;entryDy=0;entryPerimeter=0;exitX=1;exitY=1;exitDx=0;exitDy=0;exitPerimeter=0;" parent="1" source="41TGBnGnlZ0I4yRVet3i-2" target="41TGBnGnlZ0I4yRVet3i-99" edge="1">
          <mxGeometry width="50" height="50" relative="1" as="geometry">
            <mxPoint x="110" y="250" as="sourcePoint" />
            <mxPoint x="160" y="200" as="targetPoint" />
            <Array as="points" />
          </mxGeometry>
        </mxCell>
        <mxCell id="41TGBnGnlZ0I4yRVet3i-129" value="" style="endArrow=classic;html=1;rounded=0;exitX=1;exitY=0.5;exitDx=0;exitDy=0;entryX=0.5;entryY=0;entryDx=0;entryDy=0;entryPerimeter=0;" parent="1" source="2S6TP5mC4VeS2yAv5Is--1" target="41TGBnGnlZ0I4yRVet3i-18" edge="1">
          <mxGeometry width="50" height="50" relative="1" as="geometry">
            <mxPoint x="390" y="40" as="sourcePoint" />
            <mxPoint x="760" y="100" as="targetPoint" />
          </mxGeometry>
        </mxCell>
        <mxCell id="41TGBnGnlZ0I4yRVet3i-130" value="" style="endArrow=classic;html=1;rounded=0;exitX=1;exitY=0.5;exitDx=0;exitDy=0;entryX=0;entryY=0.5;entryDx=0;entryDy=0;entryPerimeter=0;" parent="1" source="41TGBnGnlZ0I4yRVet3i-15" target="41TGBnGnlZ0I4yRVet3i-18" edge="1">
          <mxGeometry width="50" height="50" relative="1" as="geometry">
            <mxPoint x="740" y="290" as="sourcePoint" />
            <mxPoint x="790" y="240" as="targetPoint" />
          </mxGeometry>
        </mxCell>
        <mxCell id="41TGBnGnlZ0I4yRVet3i-131" value="" style="endArrow=classic;html=1;rounded=0;exitX=0.5;exitY=0;exitDx=0;exitDy=0;entryX=0.317;entryY=0.986;entryDx=0;entryDy=0;entryPerimeter=0;" parent="1" source="41TGBnGnlZ0I4yRVet3i-112" target="41TGBnGnlZ0I4yRVet3i-18" edge="1">
          <mxGeometry width="50" height="50" relative="1" as="geometry">
            <mxPoint x="390" y="400" as="sourcePoint" />
            <mxPoint x="440" y="350" as="targetPoint" />
          </mxGeometry>
        </mxCell>
        <mxCell id="41TGBnGnlZ0I4yRVet3i-138" value="" style="endArrow=classic;html=1;rounded=0;exitX=1;exitY=0;exitDx=0;exitDy=0;entryX=0.023;entryY=0.788;entryDx=0;entryDy=0;entryPerimeter=0;" parent="1" source="41TGBnGnlZ0I4yRVet3i-17" target="41TGBnGnlZ0I4yRVet3i-18" edge="1">
          <mxGeometry width="50" height="50" relative="1" as="geometry">
            <mxPoint x="400" y="330" as="sourcePoint" />
            <mxPoint x="450" y="280" as="targetPoint" />
          </mxGeometry>
        </mxCell>
        <mxCell id="70UcXTock5xrmthyNz8D-2" value="" style="endArrow=none;html=1;rounded=0;exitX=0;exitY=0.5;exitDx=0;exitDy=0;" parent="1" source="41TGBnGnlZ0I4yRVet3i-5" edge="1">
          <mxGeometry width="50" height="50" relative="1" as="geometry">
            <mxPoint x="370" y="150" as="sourcePoint" />
            <mxPoint x="360" y="110" as="targetPoint" />
          </mxGeometry>
        </mxCell>
        <mxCell id="70UcXTock5xrmthyNz8D-3" value="" style="endArrow=none;html=1;rounded=0;" parent="1" edge="1">
          <mxGeometry width="50" height="50" relative="1" as="geometry">
            <mxPoint x="360" y="110" as="sourcePoint" />
            <mxPoint x="360" y="160" as="targetPoint" />
          </mxGeometry>
        </mxCell>
        <mxCell id="70UcXTock5xrmthyNz8D-4" value="" style="endArrow=none;html=1;rounded=0;entryX=0;entryY=0.5;entryDx=0;entryDy=0;" parent="1" edge="1">
          <mxGeometry width="50" height="50" relative="1" as="geometry">
            <mxPoint x="400" y="160" as="sourcePoint" />
            <mxPoint x="360" y="150" as="targetPoint" />
            <Array as="points">
              <mxPoint x="360" y="160" />
            </Array>
          </mxGeometry>
        </mxCell>
        <mxCell id="70UcXTock5xrmthyNz8D-5" value="Şifre" style="ellipse;whiteSpace=wrap;html=1;" parent="1" vertex="1">
          <mxGeometry x="380" y="140" width="70" height="40" as="geometry" />
        </mxCell>
        <mxCell id="70UcXTock5xrmthyNz8D-6" value="&amp;lt;&amp;lt;extends&amp;gt;&amp;gt;" style="text;strokeColor=none;align=center;fillColor=none;html=1;verticalAlign=middle;whiteSpace=wrap;rounded=0;rotation=0;" parent="1" vertex="1">
          <mxGeometry x="323" y="155" width="57" height="30" as="geometry" />
        </mxCell>
        <mxCell id="70UcXTock5xrmthyNz8D-8" value="Oturum Giriş Kontrolü" style="ellipse;whiteSpace=wrap;html=1;" parent="1" vertex="1">
          <mxGeometry x="552.43" y="97.5" width="97.57" height="52.5" as="geometry" />
        </mxCell>
        <mxCell id="70UcXTock5xrmthyNz8D-12" value="" style="endArrow=none;html=1;rounded=0;entryX=0;entryY=0.5;entryDx=0;entryDy=0;exitX=0.149;exitY=1.207;exitDx=0;exitDy=0;exitPerimeter=0;" parent="1" source="41TGBnGnlZ0I4yRVet3i-90" target="41TGBnGnlZ0I4yRVet3i-110" edge="1">
          <mxGeometry width="50" height="50" relative="1" as="geometry">
            <mxPoint x="330" y="465" as="sourcePoint" />
            <mxPoint x="380" y="460" as="targetPoint" />
          </mxGeometry>
        </mxCell>
        <mxCell id="70UcXTock5xrmthyNz8D-14" value="" style="triangle;whiteSpace=wrap;html=1;" parent="1" vertex="1">
          <mxGeometry x="526.43" y="106.25" width="26" height="13.75" as="geometry" />
        </mxCell>
        <mxCell id="70UcXTock5xrmthyNz8D-16" value="&amp;lt;&amp;lt;uses&amp;gt;&amp;gt;" style="text;strokeColor=none;align=center;fillColor=none;html=1;verticalAlign=middle;whiteSpace=wrap;rounded=0;" parent="1" vertex="1">
          <mxGeometry x="476.13" y="80" width="38.87" height="30" as="geometry" />
        </mxCell>
        <mxCell id="70UcXTock5xrmthyNz8D-17" value="" style="endArrow=none;html=1;rounded=0;entryX=0;entryY=0.5;entryDx=0;entryDy=0;exitX=1;exitY=0.5;exitDx=0;exitDy=0;" parent="1" source="41TGBnGnlZ0I4yRVet3i-5" target="70UcXTock5xrmthyNz8D-14" edge="1">
          <mxGeometry width="50" height="50" relative="1" as="geometry">
            <mxPoint x="390" y="350" as="sourcePoint" />
            <mxPoint x="440" y="300" as="targetPoint" />
          </mxGeometry>
        </mxCell>
        <mxCell id="70UcXTock5xrmthyNz8D-19" value="" style="triangle;whiteSpace=wrap;html=1;" parent="1" vertex="1">
          <mxGeometry x="526.4300000000001" y="130" width="32.27" height="13.75" as="geometry" />
        </mxCell>
        <mxCell id="70UcXTock5xrmthyNz8D-20" value="&amp;lt;&amp;lt;uses&amp;gt;&amp;gt;" style="text;strokeColor=none;align=center;fillColor=none;html=1;verticalAlign=middle;whiteSpace=wrap;rounded=0;" parent="1" vertex="1">
          <mxGeometry x="476.13" y="117.5" width="38.87" height="30" as="geometry" />
        </mxCell>
        <mxCell id="70UcXTock5xrmthyNz8D-21" value="" style="endArrow=none;html=1;rounded=0;entryX=0;entryY=0.5;entryDx=0;entryDy=0;exitX=0.983;exitY=0.315;exitDx=0;exitDy=0;exitPerimeter=0;" parent="1" source="70UcXTock5xrmthyNz8D-5" target="70UcXTock5xrmthyNz8D-19" edge="1">
          <mxGeometry width="50" height="50" relative="1" as="geometry">
            <mxPoint x="454.3" y="150" as="sourcePoint" />
            <mxPoint x="441.3" y="340" as="targetPoint" />
          </mxGeometry>
        </mxCell>
        <mxCell id="70UcXTock5xrmthyNz8D-23" style="edgeStyle=orthogonalEdgeStyle;rounded=0;orthogonalLoop=1;jettySize=auto;html=1;exitX=1;exitY=0.5;exitDx=0;exitDy=0;entryX=0.003;entryY=0.08;entryDx=0;entryDy=0;entryPerimeter=0;" parent="1" source="70UcXTock5xrmthyNz8D-8" target="41TGBnGnlZ0I4yRVet3i-18" edge="1">
          <mxGeometry relative="1" as="geometry" />
        </mxCell>
        <mxCell id="70UcXTock5xrmthyNz8D-24" value="" style="triangle;whiteSpace=wrap;html=1;" parent="1" vertex="1">
          <mxGeometry x="418.43" y="185" width="24" height="30" as="geometry" />
        </mxCell>
        <mxCell id="70UcXTock5xrmthyNz8D-26" value="&amp;lt;&amp;lt;uses&amp;gt;&amp;gt;" style="text;strokeColor=none;align=center;fillColor=none;html=1;verticalAlign=middle;whiteSpace=wrap;rounded=0;" parent="1" vertex="1">
          <mxGeometry x="317.07" y="180" width="68.87" height="35" as="geometry" />
        </mxCell>
        <mxCell id="70UcXTock5xrmthyNz8D-28" value="" style="endArrow=none;html=1;rounded=0;entryX=0;entryY=0.5;entryDx=0;entryDy=0;exitX=1;exitY=0.5;exitDx=0;exitDy=0;" parent="1" source="41TGBnGnlZ0I4yRVet3i-16" target="70UcXTock5xrmthyNz8D-24" edge="1">
          <mxGeometry width="50" height="50" relative="1" as="geometry">
            <mxPoint x="390" y="350" as="sourcePoint" />
            <mxPoint x="440" y="300" as="targetPoint" />
          </mxGeometry>
        </mxCell>
        <mxCell id="70UcXTock5xrmthyNz8D-29" value="" style="endArrow=none;html=1;rounded=0;entryX=0.75;entryY=1;entryDx=0;entryDy=0;" parent="1" target="41TGBnGnlZ0I4yRVet3i-31" edge="1">
          <mxGeometry width="50" height="50" relative="1" as="geometry">
            <mxPoint x="310" y="400" as="sourcePoint" />
            <mxPoint x="310" y="365" as="targetPoint" />
          </mxGeometry>
        </mxCell>
        <mxCell id="41TGBnGnlZ0I4yRVet3i-31" value="Kredi Kartı" style="ellipse;whiteSpace=wrap;html=1;" parent="1" vertex="1">
          <mxGeometry x="270" y="380" width="70" height="50" as="geometry" />
        </mxCell>
        <mxCell id="70UcXTock5xrmthyNz8D-32" value="" style="triangle;whiteSpace=wrap;html=1;" parent="1" vertex="1">
          <mxGeometry x="413.42999999999995" y="393.13" width="26" height="13.75" as="geometry" />
        </mxCell>
        <mxCell id="70UcXTock5xrmthyNz8D-33" value="&amp;lt;&amp;lt;uses&amp;gt;&amp;gt;" style="text;strokeColor=none;align=center;fillColor=none;html=1;verticalAlign=middle;whiteSpace=wrap;rounded=0;" parent="1" vertex="1">
          <mxGeometry x="362.43" y="373.13" width="30" height="20" as="geometry" />
        </mxCell>
        <mxCell id="70UcXTock5xrmthyNz8D-34" value="" style="endArrow=none;html=1;rounded=0;entryX=0;entryY=0.5;entryDx=0;entryDy=0;" parent="1" target="70UcXTock5xrmthyNz8D-32" edge="1">
          <mxGeometry width="50" height="50" relative="1" as="geometry">
            <mxPoint x="340" y="400" as="sourcePoint" />
            <mxPoint x="327" y="586.88" as="targetPoint" />
          </mxGeometry>
        </mxCell>
        <mxCell id="70UcXTock5xrmthyNz8D-35" value="Kart Bilgileri kontrolü" style="ellipse;whiteSpace=wrap;html=1;" parent="1" vertex="1">
          <mxGeometry x="442.43" y="380" width="87.57" height="35.63" as="geometry" />
        </mxCell>
        <mxCell id="70UcXTock5xrmthyNz8D-37" value="" style="endArrow=classic;html=1;rounded=0;entryX=0.117;entryY=0.996;entryDx=0;entryDy=0;entryPerimeter=0;exitX=1;exitY=0;exitDx=0;exitDy=0;" parent="1" source="70UcXTock5xrmthyNz8D-35" target="41TGBnGnlZ0I4yRVet3i-18" edge="1">
          <mxGeometry width="50" height="50" relative="1" as="geometry">
            <mxPoint x="390" y="350" as="sourcePoint" />
            <mxPoint x="440" y="300" as="targetPoint" />
          </mxGeometry>
        </mxCell>
        <mxCell id="70UcXTock5xrmthyNz8D-38" value="" style="endArrow=classic;html=1;rounded=0;exitX=0;exitY=0.3333333333333333;exitDx=0;exitDy=0;exitPerimeter=0;entryX=0.097;entryY=0.192;entryDx=0;entryDy=0;entryPerimeter=0;" parent="1" source="41TGBnGnlZ0I4yRVet3i-2" target="70UcXTock5xrmthyNz8D-39" edge="1">
          <mxGeometry width="50" height="50" relative="1" as="geometry">
            <mxPoint x="390" y="350" as="sourcePoint" />
            <mxPoint x="150" y="510" as="targetPoint" />
          </mxGeometry>
        </mxCell>
        <mxCell id="70UcXTock5xrmthyNz8D-39" value="Favoriler" style="ellipse;whiteSpace=wrap;html=1;" parent="1" vertex="1">
          <mxGeometry x="80" y="520" width="120" height="40" as="geometry" />
        </mxCell>
        <mxCell id="70UcXTock5xrmthyNz8D-40" value="Favorilere Ekle&amp;nbsp;" style="ellipse;whiteSpace=wrap;html=1;" parent="1" vertex="1">
          <mxGeometry x="157.43" y="605" width="95" height="40" as="geometry" />
        </mxCell>
        <mxCell id="70UcXTock5xrmthyNz8D-45" value="Daha Önce Eklenmiş Mi" style="ellipse;whiteSpace=wrap;html=1;" parent="1" vertex="1">
          <mxGeometry x="333.29" y="605" width="89.14" height="35.63" as="geometry" />
        </mxCell>
        <mxCell id="70UcXTock5xrmthyNz8D-46" value="&amp;lt;&amp;lt;uses&amp;gt;&amp;gt;" style="text;strokeColor=none;align=center;fillColor=none;html=1;verticalAlign=middle;whiteSpace=wrap;rounded=0;" parent="1" vertex="1">
          <mxGeometry x="263.56" y="595" width="38.87" height="30" as="geometry" />
        </mxCell>
        <mxCell id="70UcXTock5xrmthyNz8D-48" style="edgeStyle=orthogonalEdgeStyle;rounded=0;orthogonalLoop=1;jettySize=auto;html=1;exitX=0;exitY=0.5;exitDx=0;exitDy=0;" parent="1" edge="1">
          <mxGeometry relative="1" as="geometry">
            <mxPoint x="212.43" y="575" as="sourcePoint" />
            <mxPoint x="212.43" y="575" as="targetPoint" />
          </mxGeometry>
        </mxCell>
        <mxCell id="70UcXTock5xrmthyNz8D-50" style="edgeStyle=orthogonalEdgeStyle;rounded=0;orthogonalLoop=1;jettySize=auto;html=1;entryX=0.883;entryY=1.004;entryDx=0;entryDy=0;entryPerimeter=0;" parent="1" source="70UcXTock5xrmthyNz8D-45" target="41TGBnGnlZ0I4yRVet3i-18" edge="1">
          <mxGeometry relative="1" as="geometry" />
        </mxCell>
        <mxCell id="70UcXTock5xrmthyNz8D-51" value="" style="triangle;whiteSpace=wrap;html=1;" parent="1" vertex="1">
          <mxGeometry x="546.43" y="460" width="23.57" height="13.75" as="geometry" />
        </mxCell>
        <mxCell id="70UcXTock5xrmthyNz8D-53" value="" style="endArrow=none;html=1;rounded=0;entryX=0;entryY=0.5;entryDx=0;entryDy=0;exitX=1;exitY=0.5;exitDx=0;exitDy=0;" parent="1" source="41TGBnGnlZ0I4yRVet3i-110" target="70UcXTock5xrmthyNz8D-51" edge="1">
          <mxGeometry width="50" height="50" relative="1" as="geometry">
            <mxPoint x="510" y="467" as="sourcePoint" />
            <mxPoint x="460" y="653.75" as="targetPoint" />
          </mxGeometry>
        </mxCell>
        <mxCell id="70UcXTock5xrmthyNz8D-76" style="edgeStyle=orthogonalEdgeStyle;rounded=0;orthogonalLoop=1;jettySize=auto;html=1;" parent="1" source="70UcXTock5xrmthyNz8D-54" edge="1">
          <mxGeometry relative="1" as="geometry">
            <mxPoint x="770" y="230" as="targetPoint" />
          </mxGeometry>
        </mxCell>
        <mxCell id="70UcXTock5xrmthyNz8D-54" value="Favorilerden Kaldır" style="ellipse;whiteSpace=wrap;html=1;" parent="1" vertex="1">
          <mxGeometry x="280" y="520" width="90" height="40" as="geometry" />
        </mxCell>
        <mxCell id="70UcXTock5xrmthyNz8D-71" value="" style="endArrow=none;html=1;rounded=0;entryX=0;entryY=0.5;entryDx=0;entryDy=0;" parent="1" source="70UcXTock5xrmthyNz8D-72" target="70UcXTock5xrmthyNz8D-54" edge="1">
          <mxGeometry width="50" height="50" relative="1" as="geometry">
            <mxPoint x="220" y="540" as="sourcePoint" />
            <mxPoint x="440" y="400" as="targetPoint" />
          </mxGeometry>
        </mxCell>
        <mxCell id="70UcXTock5xrmthyNz8D-73" value="" style="endArrow=none;html=1;rounded=0;entryX=0;entryY=0.5;entryDx=0;entryDy=0;" parent="1" target="70UcXTock5xrmthyNz8D-72" edge="1">
          <mxGeometry width="50" height="50" relative="1" as="geometry">
            <mxPoint x="220" y="540" as="sourcePoint" />
            <mxPoint x="280" y="540" as="targetPoint" />
          </mxGeometry>
        </mxCell>
        <mxCell id="70UcXTock5xrmthyNz8D-72" value="" style="triangle;whiteSpace=wrap;html=1;direction=west;" parent="1" vertex="1">
          <mxGeometry x="200" y="520" width="20" height="45" as="geometry" />
        </mxCell>
        <mxCell id="70UcXTock5xrmthyNz8D-74" value="&amp;lt;&amp;lt;extends&amp;gt;&amp;gt;" style="text;strokeColor=none;align=center;fillColor=none;html=1;verticalAlign=middle;whiteSpace=wrap;rounded=0;" parent="1" vertex="1">
          <mxGeometry x="215" y="510" width="80" height="30" as="geometry" />
        </mxCell>
        <mxCell id="1AFVeL3Bqs4WyW1--9hR-2" style="edgeStyle=orthogonalEdgeStyle;rounded=0;orthogonalLoop=1;jettySize=auto;html=1;exitX=0;exitY=0.5;exitDx=0;exitDy=0;" parent="1" edge="1">
          <mxGeometry relative="1" as="geometry">
            <mxPoint x="132.43" y="635" as="sourcePoint" />
            <mxPoint x="132.43" y="635" as="targetPoint" />
          </mxGeometry>
        </mxCell>
        <mxCell id="1AFVeL3Bqs4WyW1--9hR-3" value="" style="endArrow=none;html=1;rounded=0;entryX=0.254;entryY=0.05;entryDx=0;entryDy=0;entryPerimeter=0;exitX=0;exitY=0.5;exitDx=0;exitDy=0;" parent="1" source="1AFVeL3Bqs4WyW1--9hR-5" target="70UcXTock5xrmthyNz8D-40" edge="1">
          <mxGeometry width="50" height="50" relative="1" as="geometry">
            <mxPoint x="140" y="600" as="sourcePoint" />
            <mxPoint x="200" y="600" as="targetPoint" />
          </mxGeometry>
        </mxCell>
        <mxCell id="1AFVeL3Bqs4WyW1--9hR-5" value="" style="triangle;whiteSpace=wrap;html=1;direction=north;" parent="1" vertex="1">
          <mxGeometry x="124.93" y="552.5" width="45" height="20" as="geometry" />
        </mxCell>
        <mxCell id="1AFVeL3Bqs4WyW1--9hR-6" value="&amp;lt;&amp;lt;extends&amp;gt;&amp;gt;" style="text;strokeColor=none;align=center;fillColor=none;html=1;verticalAlign=middle;whiteSpace=wrap;rounded=0;" parent="1" vertex="1">
          <mxGeometry x="80" y="585" width="80" height="30" as="geometry" />
        </mxCell>
      </root>
    </mxGraphModel>
  </diagram>
</mxfile>
